<svg width="32" height="33" viewBox="0 0 32 33" fill="none" xmlns="http://www.w3.org/2000/svg">
<g clip-path="url(#clip0_1_48741)">
<path d="M16 2.83594C8.64003 2.83594 2.66669 8.80927 2.66669 16.1693C2.66669 23.5293 8.64003 29.5026 16 29.5026C23.36 29.5026 29.3334 23.5293 29.3334 16.1693C29.3334 8.80927 23.36 2.83594 16 2.83594ZM9.4267 24.5426C10 23.3426 13.4934 22.1693 16 22.1693C18.5067 22.1693 22.0134 23.3426 22.5734 24.5426C20.76 25.9826 18.48 26.8359 16 26.8359C13.52 26.8359 11.24 25.9826 9.4267 24.5426ZM24.48 22.6093C22.5734 20.2893 17.9467 19.5026 16 19.5026C14.0534 19.5026 9.42669 20.2893 7.52003 22.6093C6.16003 20.8226 5.33336 18.5959 5.33336 16.1693C5.33336 10.2893 10.12 5.5026 16 5.5026C21.88 5.5026 26.6667 10.2893 26.6667 16.1693C26.6667 18.5959 25.84 20.8226 24.48 22.6093V22.6093ZM16 8.16927C13.4134 8.16927 11.3334 10.2493 11.3334 12.8359C11.3334 15.4226 13.4134 17.5026 16 17.5026C18.5867 17.5026 20.6667 15.4226 20.6667 12.8359C20.6667 10.2493 18.5867 8.16927 16 8.16927ZM16 14.8359C14.8934 14.8359 14 13.9426 14 12.8359C14 11.7293 14.8934 10.8359 16 10.8359C17.1067 10.8359 18 11.7293 18 12.8359C18 13.9426 17.1067 14.8359 16 14.8359Z" fill="#323232"/>
</g>
<defs>
<clipPath id="clip0_1_48741">
<rect width="32" height="32" fill="white" transform="translate(3.05176e-05 0.169312)"/>
</clipPath>
</defs>
</svg>
