<svg width="17" height="17" viewBox="0 0 17 17" fill="none" xmlns="http://www.w3.org/2000/svg">
<path d="M7.83331 11.5027H9.16665V7.50269H7.83331V11.5027ZM8.49998 1.50269C4.81998 1.50269 1.83331 4.48935 1.83331 8.16935C1.83331 11.8494 4.81998 14.836 8.49998 14.836C12.18 14.836 15.1666 11.8494 15.1666 8.16935C15.1666 4.48935 12.18 1.50269 8.49998 1.50269ZM8.49998 13.5027C5.55998 13.5027 3.16665 11.1094 3.16665 8.16935C3.16665 5.22935 5.55998 2.83602 8.49998 2.83602C11.44 2.83602 13.8333 5.22935 13.8333 8.16935C13.8333 11.1094 11.44 13.5027 8.49998 13.5027ZM7.83331 6.16935H9.16665V4.83602H7.83331V6.16935Z" fill="white"/>
<path d="M7.83331 4.83594H9.16665V6.16927H7.83331V4.83594ZM7.83331 7.5026H9.16665V11.5026H7.83331V7.5026Z" fill="white"/>
<path d="M8.49998 1.50269C4.81998 1.50269 1.83331 4.48935 1.83331 8.16935C1.83331 11.8494 4.81998 14.836 8.49998 14.836C12.18 14.836 15.1666 11.8494 15.1666 8.16935C15.1666 4.48935 12.18 1.50269 8.49998 1.50269ZM8.49998 13.5027C5.55998 13.5027 3.16665 11.1094 3.16665 8.16935C3.16665 5.22935 5.55998 2.83602 8.49998 2.83602C11.44 2.83602 13.8333 5.22935 13.8333 8.16935C13.8333 11.1094 11.44 13.5027 8.49998 13.5027Z" fill="white"/>
</svg>
