<svg width="19" height="21" viewBox="0 0 19 21" fill="none" xmlns="http://www.w3.org/2000/svg">
<g clip-path="url(#clip0_1_619)">
<path d="M9.06375 6.03313C6.52084 6.03313 4.46972 8.05221 4.46972 10.5554C4.46972 13.0586 6.52084 15.0776 9.06375 15.0776C11.6067 15.0776 13.6578 13.0586 13.6578 10.5554C13.6578 8.05221 11.6067 6.03313 9.06375 6.03313ZM9.06375 13.4954C7.42045 13.4954 6.07703 12.1769 6.07703 10.5554C6.07703 8.93383 7.41646 7.61533 9.06375 7.61533C10.711 7.61533 12.0505 8.93383 12.0505 10.5554C12.0505 12.1769 10.707 13.4954 9.06375 13.4954V13.4954ZM14.9172 5.84815C14.9172 6.43459 14.4375 6.90295 13.8457 6.90295C13.25 6.90295 12.7742 6.43065 12.7742 5.84815C12.7742 5.26565 13.254 4.79335 13.8457 4.79335C14.4375 4.79335 14.9172 5.26565 14.9172 5.84815ZM17.9599 6.91869C17.892 5.50574 17.5641 4.25415 16.5126 3.22296C15.465 2.19178 14.1936 1.86904 12.7582 1.7982C11.2788 1.71554 6.8447 1.71554 5.36533 1.7982C3.93395 1.8651 2.66249 2.18784 1.61094 3.21903C0.55939 4.25021 0.235528 5.5018 0.163559 6.91476C0.0795949 8.37101 0.0795949 12.7358 0.163559 14.1921C0.23153 15.605 0.55939 16.8566 1.61094 17.8878C2.66249 18.919 3.92995 19.2417 5.36533 19.3126C6.8447 19.3952 11.2788 19.3952 12.7582 19.3126C14.1936 19.2457 15.465 18.9229 16.5126 17.8878C17.5601 16.8566 17.888 15.605 17.9599 14.1921C18.0439 12.7358 18.0439 8.37495 17.9599 6.91869V6.91869ZM16.0488 15.7546C15.7369 16.526 15.1332 17.1203 14.3455 17.4313C13.166 17.8918 10.3672 17.7855 9.06375 17.7855C7.76031 17.7855 4.95751 17.8878 3.78201 17.4313C2.99835 17.1243 2.3946 16.53 2.07874 15.7546C1.61094 14.5935 1.71889 11.8385 1.71889 10.5554C1.71889 9.27231 1.61494 6.5133 2.07874 5.35617C2.39061 4.58475 2.99435 3.99045 3.78201 3.67952C4.96151 3.21903 7.76031 3.32529 9.06375 3.32529C10.3672 3.32529 13.17 3.22296 14.3455 3.67952C15.1292 3.98651 15.7329 4.58082 16.0488 5.35617C16.5166 6.51724 16.4086 9.27231 16.4086 10.5554C16.4086 11.8385 16.5166 14.5975 16.0488 15.7546Z" fill="#172B4D"/>
</g>
<defs>
<clipPath id="clip0_1_619">
<rect width="17.9123" height="20.1514" fill="white" transform="translate(0.103577 0.484009)"/>
</clipPath>
</defs>
</svg>
