<svg width="44" height="44" viewBox="0 0 44 44" fill="none" xmlns="http://www.w3.org/2000/svg">
<rect opacity="0.1" x="0.894417" y="0.729072" width="42.5418" height="42.5418" rx="21.2709" fill="#091E42" stroke="#0A142F" stroke-width="1.11952"/>
<path fill-rule="evenodd" clip-rule="evenodd" d="M18.247 29.2769H14.8884V19.2012H18.247V29.2769V29.2769Z" fill="#172B4D"/>
<path fill-rule="evenodd" clip-rule="evenodd" d="M16.5577 16.9622H16.5386C15.5364 16.9622 14.8884 16.2155 14.8884 15.2823C14.8884 14.3294 15.5561 13.6036 16.5774 13.6036C17.5987 13.6036 18.2276 14.3294 18.247 15.2823C18.247 16.2155 17.5987 16.9622 16.5577 16.9622V16.9622Z" fill="#172B4D"/>
<path fill-rule="evenodd" clip-rule="evenodd" d="M30.5616 29.2766H27.2614V24.0099C27.2614 22.687 26.7838 21.7843 25.589 21.7843C24.6772 21.7843 24.1341 22.3929 23.8956 22.9807C23.8083 23.1913 23.7869 23.4848 23.7869 23.779V29.2769H20.4861C20.4861 29.2769 20.5296 20.3563 20.4861 19.4326H23.7869V20.827C24.2249 20.1567 25.0095 19.2012 26.7618 19.2012C28.9336 19.2012 30.5618 20.6085 30.5618 23.6322L30.5616 29.2766V29.2766Z" fill="#172B4D"/>
</svg>
