<svg width="32" height="33" viewBox="0 0 32 33" fill="none" xmlns="http://www.w3.org/2000/svg">
<g clip-path="url(#clip0_1_565)">
<path d="M16 8.03602C17.5467 8.03602 18.8 9.28935 18.8 10.836C18.8 12.3827 17.5467 13.636 16 13.636C14.4534 13.636 13.2 12.3827 13.2 10.836C13.2 9.28935 14.4534 8.03602 16 8.03602ZM16 20.036C19.96 20.036 24.1334 21.9827 24.1334 22.836V24.3027H7.86671V22.836C7.86671 21.9827 12.04 20.036 16 20.036ZM16 5.50269C13.0534 5.50269 10.6667 7.88935 10.6667 10.836C10.6667 13.7827 13.0534 16.1694 16 16.1694C18.9467 16.1694 21.3334 13.7827 21.3334 10.836C21.3334 7.88935 18.9467 5.50269 16 5.50269ZM16 17.5027C12.44 17.5027 5.33337 19.2894 5.33337 22.836V25.5027C5.33337 26.236 5.93337 26.836 6.66671 26.836H25.3334C26.0667 26.836 26.6667 26.236 26.6667 25.5027V22.836C26.6667 19.2894 19.56 17.5027 16 17.5027Z" fill="#323232"/>
</g>
<defs>
<clipPath id="clip0_1_565">
<rect width="32" height="32" fill="white" transform="translate(3.05176e-05 0.169312)"/>
</clipPath>
</defs>
</svg>
