<svg width="20" height="21" viewBox="0 0 20 21" fill="none" xmlns="http://www.w3.org/2000/svg">
<g clip-path="url(#clip0_1_653)">
<path d="M12.9583 11.0026C13.5833 11.0026 14.1333 10.6609 14.4167 10.1443L17.4 4.73594C17.7083 4.18594 17.3083 3.5026 16.675 3.5026H4.34168L3.55834 1.83594H0.833344V3.5026H2.50001L5.50001 9.8276L4.37501 11.8609C3.76668 12.9776 4.56668 14.3359 5.83334 14.3359H15.8333V12.6693H5.83334L6.75001 11.0026H12.9583ZM5.13334 5.16927H15.2583L12.9583 9.33594H7.10834L5.13334 5.16927ZM5.83334 15.1693C4.91668 15.1693 4.17501 15.9193 4.17501 16.8359C4.17501 17.7526 4.91668 18.5026 5.83334 18.5026C6.75001 18.5026 7.50001 17.7526 7.50001 16.8359C7.50001 15.9193 6.75001 15.1693 5.83334 15.1693ZM14.1667 15.1693C13.25 15.1693 12.5083 15.9193 12.5083 16.8359C12.5083 17.7526 13.25 18.5026 14.1667 18.5026C15.0833 18.5026 15.8333 17.7526 15.8333 16.8359C15.8333 15.9193 15.0833 15.1693 14.1667 15.1693Z" fill="white"/>
</g>
<defs>
<clipPath id="clip0_1_653">
<rect width="20" height="20" fill="white" transform="translate(0 0.169312)"/>
</clipPath>
</defs>
</svg>
