<svg width="32" height="33" viewBox="0 0 32 33" fill="none" xmlns="http://www.w3.org/2000/svg">
<g clip-path="url(#clip0_1_566)">
<path d="M20.7333 17.5026C21.7333 17.5026 22.6133 16.9559 23.0666 16.1293L27.84 7.47594C28.3333 6.59594 27.6933 5.5026 26.68 5.5026H6.94665L5.69331 2.83594H1.33331V5.5026H3.99998L8.79998 15.6226L6.99998 18.8759C6.02665 20.6626 7.30665 22.8359 9.33331 22.8359H25.3333V20.1693H9.33331L10.8 17.5026H20.7333ZM8.21331 8.16927H24.4133L20.7333 14.8359H11.3733L8.21331 8.16927ZM9.33331 24.1693C7.86665 24.1693 6.67998 25.3693 6.67998 26.8359C6.67998 28.3026 7.86665 29.5026 9.33331 29.5026C10.8 29.5026 12 28.3026 12 26.8359C12 25.3693 10.8 24.1693 9.33331 24.1693ZM22.6666 24.1693C21.2 24.1693 20.0133 25.3693 20.0133 26.8359C20.0133 28.3026 21.2 29.5026 22.6666 29.5026C24.1333 29.5026 25.3333 28.3026 25.3333 26.8359C25.3333 25.3693 24.1333 24.1693 22.6666 24.1693Z" fill="#494961"/>
</g>
<defs>
<clipPath id="clip0_1_566">
<rect width="32" height="32" fill="white" transform="translate(0 0.169312)"/>
</clipPath>
</defs>
</svg>
