<svg width="25" height="25" viewBox="0 0 25 25" fill="none" xmlns="http://www.w3.org/2000/svg">
<g clip-path="url(#clip0_1_434)">
<path d="M16.05 13.1693C16.8 13.1693 17.46 12.7593 17.8 12.1393L21.38 5.64931C21.75 4.98931 21.27 4.16931 20.51 4.16931H5.71L4.77 2.16931H1.5V4.16931H3.5L7.1 11.7593L5.75 14.1993C5.02 15.5393 5.98 17.1693 7.5 17.1693H19.5V15.1693H7.5L8.6 13.1693H16.05ZM6.66 6.16931H18.81L16.05 11.1693H9.03L6.66 6.16931ZM7.5 18.1693C6.4 18.1693 5.51 19.0693 5.51 20.1693C5.51 21.2693 6.4 22.1693 7.5 22.1693C8.6 22.1693 9.5 21.2693 9.5 20.1693C9.5 19.0693 8.6 18.1693 7.5 18.1693ZM17.5 18.1693C16.4 18.1693 15.51 19.0693 15.51 20.1693C15.51 21.2693 16.4 22.1693 17.5 22.1693C18.6 22.1693 19.5 21.2693 19.5 20.1693C19.5 19.0693 18.6 18.1693 17.5 18.1693Z" fill="white"/>
</g>
<defs>
<clipPath id="clip0_1_434">
<rect width="24" height="24" fill="white" transform="translate(0.5 0.169312)"/>
</clipPath>
</defs>
</svg>
