<svg width="16" height="14" viewBox="0 0 16 14" fill="none" xmlns="http://www.w3.org/2000/svg">
<path fill-rule="evenodd" clip-rule="evenodd" d="M7.62443 4.11864L7.65598 4.65129L7.13018 4.58607C5.21629 4.33605 3.54426 3.48816 2.12461 2.06415L1.43056 1.35757L1.25179 1.87935C0.873217 3.04248 1.11508 4.27083 1.90378 5.09698C2.32441 5.55353 2.22977 5.61875 1.50417 5.34699C1.25179 5.26003 1.03096 5.19481 1.00992 5.22742C0.936312 5.30351 1.18869 6.29271 1.3885 6.68405C1.66191 7.22756 2.21925 7.76021 2.82918 8.07545L3.34446 8.32547L2.73453 8.33634C2.14564 8.33634 2.12461 8.34721 2.18771 8.57549C2.39802 9.28206 3.22878 10.0321 4.15418 10.3582L4.80617 10.5865L4.23831 10.9344C3.39704 11.4344 2.40854 11.717 1.42004 11.7388C0.946828 11.7496 0.557739 11.7931 0.557739 11.8257C0.557739 11.9344 1.84068 12.5432 2.58731 12.7823C4.8272 13.4889 7.48772 13.1845 9.48575 11.9779C10.9054 11.1192 12.325 9.41251 12.9875 7.76021C13.3451 6.87971 13.7026 5.2709 13.7026 4.49911C13.7026 3.99907 13.7342 3.93385 14.3231 3.33598C14.6701 2.98813 14.9961 2.60766 15.0592 2.49896C15.1643 2.29242 15.1538 2.29242 14.6175 2.47722C13.7237 2.80333 13.5975 2.75985 14.0391 2.27068C14.3651 1.92283 14.7542 1.29235 14.7542 1.10756C14.7542 1.07495 14.5965 1.1293 14.4177 1.22713C14.2284 1.33583 13.8078 1.49889 13.4923 1.59672L12.9245 1.78152L12.4092 1.4228C12.1252 1.22713 11.7256 1.00972 11.5153 0.944502C10.979 0.792317 10.1588 0.814058 9.67503 0.987983C8.36055 1.47715 7.52979 2.73811 7.62443 4.11864Z" fill="#172B4D"/>
</svg>
