<svg width="44" height="44" viewBox="0 0 44 44" fill="none" xmlns="http://www.w3.org/2000/svg">
<rect opacity="0.1" x="0.898414" y="0.729072" width="42.5418" height="42.5418" rx="21.2709" fill="#091E42" stroke="#0A142F" stroke-width="1.11952"/>
<path d="M26.6474 28.904H17.3181C14.5193 28.904 12.6534 27.1314 12.6534 24.4726V19.1548C12.6534 16.496 14.5193 14.7234 17.3181 14.7234H26.6474C29.4462 14.7234 31.3121 16.496 31.3121 19.1548V24.4726C31.3121 27.1314 29.4462 28.904 26.6474 28.904Z" stroke="#091E42" stroke-width="1.11952" stroke-miterlimit="10" stroke-linecap="round" stroke-linejoin="round"/>
<path d="M22.1693 19.7842L24.5017 21.1137C25.3413 21.6454 25.3413 22.4431 24.5017 22.9749L22.1693 24.3043C21.2364 24.8361 20.4901 24.3929 20.4901 23.418V20.7591C20.4901 19.607 21.2364 19.2525 22.1693 19.7842Z" stroke="#091E42" stroke-width="1.11952" stroke-miterlimit="10" stroke-linecap="round" stroke-linejoin="round"/>
</svg>
